<svg width="288" height="18" viewBox="0 0 288 18" fill="none" xmlns="http://www.w3.org/2000/svg">
<g clip-path="url(#clip0_3319_2152)">
<path d="M6.522 11.156C6.582 11.152 6.636 11.174 6.684 11.222L7.044 11.606C6.816 11.87 6.536 12.076 6.204 12.224C5.876 12.368 5.48 12.44 5.016 12.44C4.624 12.44 4.266 12.372 3.942 12.236C3.622 12.1 3.346 11.91 3.114 11.666C2.886 11.422 2.708 11.132 2.58 10.796C2.456 10.46 2.394 10.092 2.394 9.692C2.394 9.288 2.462 8.918 2.598 8.582C2.734 8.242 2.924 7.952 3.168 7.712C3.412 7.468 3.7 7.28 4.032 7.148C4.368 7.012 4.732 6.944 5.124 6.944C5.56 6.944 5.928 7.012 6.228 7.148C6.532 7.28 6.798 7.458 7.026 7.682L6.75 8.072C6.73 8.096 6.704 8.12 6.672 8.144C6.64 8.168 6.602 8.18 6.558 8.18C6.502 8.18 6.442 8.158 6.378 8.114C6.318 8.07 6.238 8.022 6.138 7.97C6.038 7.914 5.91 7.864 5.754 7.82C5.602 7.772 5.41 7.748 5.178 7.748C4.894 7.748 4.64 7.794 4.416 7.886C4.192 7.974 4 8.102 3.84 8.27C3.68 8.438 3.558 8.642 3.474 8.882C3.39 9.122 3.348 9.392 3.348 9.692C3.348 10 3.39 10.276 3.474 10.52C3.562 10.76 3.682 10.962 3.834 11.126C3.986 11.29 4.166 11.416 4.374 11.504C4.586 11.588 4.816 11.63 5.064 11.63C5.272 11.63 5.446 11.614 5.586 11.582C5.726 11.55 5.848 11.512 5.952 11.468C6.06 11.42 6.156 11.368 6.24 11.312C6.328 11.256 6.422 11.204 6.522 11.156ZM0.606 9.704C0.606 9.3 0.658 8.912 0.762 8.54C0.866 8.164 1.014 7.814 1.206 7.49C1.398 7.162 1.626 6.866 1.89 6.602C2.158 6.334 2.454 6.104 2.778 5.912C3.102 5.72 3.45 5.572 3.822 5.468C4.194 5.364 4.582 5.312 4.986 5.312C5.39 5.312 5.778 5.364 6.15 5.468C6.526 5.572 6.876 5.72 7.2 5.912C7.524 6.104 7.82 6.334 8.088 6.602C8.356 6.866 8.584 7.162 8.772 7.49C8.964 7.814 9.112 8.164 9.216 8.54C9.32 8.912 9.372 9.3 9.372 9.704C9.372 10.104 9.32 10.492 9.216 10.868C9.112 11.24 8.964 11.588 8.772 11.912C8.584 12.236 8.356 12.532 8.088 12.8C7.82 13.064 7.524 13.292 7.2 13.484C6.876 13.676 6.526 13.824 6.15 13.928C5.778 14.032 5.39 14.084 4.986 14.084C4.582 14.084 4.194 14.032 3.822 13.928C3.45 13.824 3.102 13.676 2.778 13.484C2.454 13.292 2.158 13.064 1.89 12.8C1.626 12.532 1.398 12.236 1.206 11.912C1.014 11.588 0.866 11.24 0.762 10.868C0.658 10.496 0.606 10.108 0.606 9.704ZM1.212 9.704C1.212 10.06 1.256 10.402 1.344 10.73C1.432 11.058 1.556 11.366 1.716 11.654C1.88 11.938 2.076 12.196 2.304 12.428C2.536 12.66 2.79 12.86 3.066 13.028C3.346 13.192 3.648 13.32 3.972 13.412C4.296 13.5 4.634 13.544 4.986 13.544C5.338 13.544 5.676 13.5 6 13.412C6.328 13.32 6.632 13.192 6.912 13.028C7.196 12.86 7.452 12.66 7.68 12.428C7.912 12.196 8.11 11.938 8.274 11.654C8.438 11.366 8.564 11.058 8.652 10.73C8.744 10.402 8.79 10.06 8.79 9.704C8.79 9.168 8.69 8.666 8.49 8.198C8.294 7.726 8.024 7.316 7.68 6.968C7.34 6.616 6.938 6.34 6.474 6.14C6.01 5.936 5.514 5.834 4.986 5.834C4.634 5.834 4.296 5.88 3.972 5.972C3.648 6.064 3.346 6.194 3.066 6.362C2.79 6.526 2.536 6.726 2.304 6.962C2.076 7.198 1.88 7.46 1.716 7.748C1.556 8.032 1.432 8.34 1.344 8.672C1.256 9.004 1.212 9.348 1.212 9.704ZM18.3085 10.808L16.9585 7.31C16.9185 7.206 16.8765 7.086 16.8325 6.95C16.7885 6.81 16.7465 6.662 16.7065 6.506C16.6225 6.83 16.5365 7.1 16.4485 7.316L15.0985 10.808H18.3085ZM20.7325 14H19.8325C19.7285 14 19.6445 13.974 19.5805 13.922C19.5165 13.87 19.4685 13.804 19.4365 13.724L18.6325 11.648H14.7745L13.9705 13.724C13.9465 13.796 13.9005 13.86 13.8325 13.916C13.7645 13.972 13.6805 14 13.5805 14H12.6805L16.1185 5.402H17.2945L20.7325 14ZM22.6922 5.162V14H21.6242V5.162H22.6922ZM25.5281 5.162V14H24.4601V5.162H25.5281ZM31.3444 9.14C31.5364 8.724 31.7724 8.4 32.0524 8.168C32.3324 7.932 32.6744 7.814 33.0784 7.814C33.2064 7.814 33.3284 7.828 33.4444 7.856C33.5644 7.884 33.6704 7.928 33.7624 7.988L33.6844 8.786C33.6604 8.886 33.6004 8.936 33.5044 8.936C33.4484 8.936 33.3664 8.924 33.2584 8.9C33.1504 8.876 33.0284 8.864 32.8924 8.864C32.7004 8.864 32.5284 8.892 32.3764 8.948C32.2284 9.004 32.0944 9.088 31.9744 9.2C31.8584 9.308 31.7524 9.444 31.6564 9.608C31.5644 9.768 31.4804 9.952 31.4044 10.16V14H30.3304V7.922H30.9424C31.0584 7.922 31.1384 7.944 31.1824 7.988C31.2264 8.032 31.2564 8.108 31.2724 8.216L31.3444 9.14ZM35.8295 7.922V14H34.7615V7.922H35.8295ZM36.0575 6.014C36.0575 6.118 36.0355 6.216 35.9915 6.308C35.9515 6.396 35.8955 6.476 35.8235 6.548C35.7555 6.616 35.6735 6.67 35.5775 6.71C35.4855 6.75 35.3875 6.77 35.2835 6.77C35.1795 6.77 35.0815 6.75 34.9895 6.71C34.9015 6.67 34.8235 6.616 34.7555 6.548C34.6875 6.476 34.6335 6.396 34.5935 6.308C34.5535 6.216 34.5335 6.118 34.5335 6.014C34.5335 5.91 34.5535 5.812 34.5935 5.72C34.6335 5.624 34.6875 5.542 34.7555 5.474C34.8235 5.402 34.9015 5.346 34.9895 5.306C35.0815 5.266 35.1795 5.246 35.2835 5.246C35.3875 5.246 35.4855 5.266 35.5775 5.306C35.6735 5.346 35.7555 5.402 35.8235 5.474C35.8955 5.542 35.9515 5.624 35.9915 5.72C36.0355 5.812 36.0575 5.91 36.0575 6.014ZM39.7023 11.03C39.9183 11.03 40.1083 11 40.2723 10.94C40.4363 10.88 40.5743 10.796 40.6863 10.688C40.7983 10.58 40.8823 10.452 40.9383 10.304C40.9943 10.152 41.0223 9.986 41.0223 9.806C41.0223 9.434 40.9083 9.138 40.6803 8.918C40.4563 8.698 40.1303 8.588 39.7023 8.588C39.2703 8.588 38.9403 8.698 38.7123 8.918C38.4883 9.138 38.3763 9.434 38.3763 9.806C38.3763 9.986 38.4043 10.152 38.4603 10.304C38.5203 10.452 38.6063 10.58 38.7183 10.688C38.8303 10.796 38.9683 10.88 39.1323 10.94C39.2963 11 39.4863 11.03 39.7023 11.03ZM41.6283 14.33C41.6283 14.182 41.5863 14.062 41.5023 13.97C41.4183 13.878 41.3043 13.806 41.1603 13.754C41.0203 13.702 40.8563 13.666 40.6683 13.646C40.4803 13.622 40.2803 13.604 40.0683 13.592C39.8603 13.58 39.6483 13.568 39.4323 13.556C39.2163 13.544 39.0083 13.524 38.8083 13.496C38.5843 13.6 38.4003 13.732 38.2563 13.892C38.1163 14.048 38.0463 14.232 38.0463 14.444C38.0463 14.58 38.0803 14.706 38.1483 14.822C38.2203 14.942 38.3283 15.044 38.4723 15.128C38.6163 15.216 38.7963 15.284 39.0123 15.332C39.2323 15.384 39.4903 15.41 39.7863 15.41C40.0743 15.41 40.3323 15.384 40.5603 15.332C40.7883 15.28 40.9803 15.206 41.1363 15.11C41.2963 15.014 41.4183 14.9 41.5023 14.768C41.5863 14.636 41.6283 14.49 41.6283 14.33ZM42.7143 8.162V8.558C42.7143 8.69 42.6303 8.774 42.4623 8.81L41.7723 8.9C41.9083 9.164 41.9763 9.456 41.9763 9.776C41.9763 10.072 41.9183 10.342 41.8023 10.586C41.6903 10.826 41.5343 11.032 41.3343 11.204C41.1343 11.376 40.8943 11.508 40.6143 11.6C40.3343 11.692 40.0303 11.738 39.7023 11.738C39.4183 11.738 39.1503 11.704 38.8983 11.636C38.7703 11.716 38.6723 11.802 38.6043 11.894C38.5363 11.982 38.5023 12.072 38.5023 12.164C38.5023 12.308 38.5603 12.418 38.6763 12.494C38.7963 12.566 38.9523 12.618 39.1443 12.65C39.3363 12.682 39.5543 12.702 39.7983 12.71C40.0463 12.718 40.2983 12.732 40.5543 12.752C40.8143 12.768 41.0663 12.798 41.3103 12.842C41.5583 12.886 41.7783 12.958 41.9703 13.058C42.1623 13.158 42.3163 13.296 42.4323 13.472C42.5523 13.648 42.6123 13.876 42.6123 14.156C42.6123 14.416 42.5463 14.668 42.4143 14.912C42.2863 15.156 42.1003 15.372 41.8563 15.56C41.6123 15.752 41.3123 15.904 40.9563 16.016C40.6043 16.132 40.2063 16.19 39.7623 16.19C39.3183 16.19 38.9303 16.146 38.5983 16.058C38.2663 15.97 37.9903 15.852 37.7703 15.704C37.5503 15.556 37.3843 15.384 37.2723 15.188C37.1643 14.996 37.1103 14.794 37.1103 14.582C37.1103 14.282 37.2043 14.028 37.3923 13.82C37.5803 13.612 37.8383 13.446 38.1663 13.322C37.9863 13.242 37.8423 13.136 37.7343 13.004C37.6303 12.868 37.5783 12.686 37.5783 12.458C37.5783 12.37 37.5943 12.28 37.6263 12.188C37.6583 12.092 37.7063 11.998 37.7703 11.906C37.8383 11.81 37.9203 11.72 38.0163 11.636C38.1123 11.552 38.2243 11.478 38.3523 11.414C38.0523 11.246 37.8183 11.024 37.6503 10.748C37.4823 10.468 37.3983 10.144 37.3983 9.776C37.3983 9.48 37.4543 9.212 37.5663 8.972C37.6823 8.728 37.8423 8.522 38.0463 8.354C38.2503 8.182 38.4923 8.05 38.7723 7.958C39.0563 7.866 39.3663 7.82 39.7023 7.82C39.9663 7.82 40.2123 7.85 40.4403 7.91C40.6683 7.966 40.8763 8.05 41.0643 8.162H42.7143ZM44.8927 8.732C45.1527 8.456 45.4407 8.236 45.7567 8.072C46.0727 7.908 46.4367 7.826 46.8487 7.826C47.1807 7.826 47.4727 7.882 47.7247 7.994C47.9807 8.102 48.1927 8.258 48.3607 8.462C48.5327 8.662 48.6627 8.904 48.7507 9.188C48.8387 9.472 48.8827 9.786 48.8827 10.13V14H47.8087V10.13C47.8087 9.67 47.7027 9.314 47.4907 9.062C47.2827 8.806 46.9647 8.678 46.5367 8.678C46.2207 8.678 45.9247 8.754 45.6487 8.906C45.3767 9.058 45.1247 9.264 44.8927 9.524V14H43.8187V5.162H44.8927V8.732ZM52.294 14.096C51.814 14.096 51.444 13.962 51.184 13.694C50.928 13.426 50.8 13.04 50.8 12.536V8.816H50.068C50.004 8.816 49.95 8.798 49.906 8.762C49.862 8.722 49.84 8.662 49.84 8.582V8.156L50.836 8.03L51.082 6.152C51.094 6.092 51.12 6.044 51.16 6.008C51.204 5.968 51.26 5.948 51.328 5.948H51.868V8.042H53.626V8.816H51.868V12.464C51.868 12.72 51.93 12.91 52.054 13.034C52.178 13.158 52.338 13.22 52.534 13.22C52.646 13.22 52.742 13.206 52.822 13.178C52.906 13.146 52.978 13.112 53.038 13.076C53.098 13.04 53.148 13.008 53.188 12.98C53.232 12.948 53.27 12.932 53.302 12.932C53.358 12.932 53.408 12.966 53.452 13.034L53.764 13.544C53.58 13.716 53.358 13.852 53.098 13.952C52.838 14.048 52.57 14.096 52.294 14.096ZM58.2688 8.924C58.2208 9.012 58.1468 9.056 58.0468 9.056C57.9868 9.056 57.9188 9.034 57.8428 8.99C57.7668 8.946 57.6728 8.898 57.5608 8.846C57.4528 8.79 57.3228 8.74 57.1708 8.696C57.0188 8.648 56.8388 8.624 56.6308 8.624C56.4508 8.624 56.2888 8.648 56.1448 8.696C56.0008 8.74 55.8768 8.802 55.7728 8.882C55.6728 8.962 55.5948 9.056 55.5388 9.164C55.4868 9.268 55.4608 9.382 55.4608 9.506C55.4608 9.662 55.5048 9.792 55.5928 9.896C55.6848 10 55.8048 10.09 55.9528 10.166C56.1008 10.242 56.2688 10.31 56.4568 10.37C56.6448 10.426 56.8368 10.488 57.0328 10.556C57.2328 10.62 57.4268 10.692 57.6148 10.772C57.8028 10.852 57.9708 10.952 58.1188 11.072C58.2668 11.192 58.3848 11.34 58.4728 11.516C58.5648 11.688 58.6108 11.896 58.6108 12.14C58.6108 12.42 58.5608 12.68 58.4608 12.92C58.3608 13.156 58.2128 13.362 58.0168 13.538C57.8208 13.71 57.5808 13.846 57.2968 13.946C57.0128 14.046 56.6848 14.096 56.3128 14.096C55.8888 14.096 55.5048 14.028 55.1608 13.892C54.8168 13.752 54.5248 13.574 54.2848 13.358L54.5368 12.95C54.5688 12.898 54.6068 12.858 54.6508 12.83C54.6948 12.802 54.7508 12.788 54.8188 12.788C54.8908 12.788 54.9668 12.816 55.0468 12.872C55.1268 12.928 55.2228 12.99 55.3348 13.058C55.4508 13.126 55.5908 13.188 55.7548 13.244C55.9188 13.3 56.1228 13.328 56.3668 13.328C56.5748 13.328 56.7568 13.302 56.9128 13.25C57.0688 13.194 57.1988 13.12 57.3028 13.028C57.4068 12.936 57.4828 12.83 57.5308 12.71C57.5828 12.59 57.6088 12.462 57.6088 12.326C57.6088 12.158 57.5628 12.02 57.4708 11.912C57.3828 11.8 57.2648 11.706 57.1168 11.63C56.9688 11.55 56.7988 11.482 56.6068 11.426C56.4188 11.366 56.2248 11.304 56.0248 11.24C55.8288 11.176 55.6348 11.104 55.4428 11.024C55.2548 10.94 55.0868 10.836 54.9388 10.712C54.7908 10.588 54.6708 10.436 54.5788 10.256C54.4908 10.072 54.4468 9.85 54.4468 9.59C54.4468 9.358 54.4948 9.136 54.5908 8.924C54.6868 8.708 54.8268 8.52 55.0108 8.36C55.1948 8.196 55.4208 8.066 55.6888 7.97C55.9568 7.874 56.2628 7.826 56.6068 7.826C57.0068 7.826 57.3648 7.89 57.6808 8.018C58.0008 8.142 58.2768 8.314 58.5088 8.534L58.2688 8.924ZM64.0045 9.14C64.1965 8.724 64.4325 8.4 64.7125 8.168C64.9925 7.932 65.3345 7.814 65.7385 7.814C65.8665 7.814 65.9885 7.828 66.1045 7.856C66.2245 7.884 66.3305 7.928 66.4225 7.988L66.3445 8.786C66.3205 8.886 66.2605 8.936 66.1645 8.936C66.1085 8.936 66.0265 8.924 65.9185 8.9C65.8105 8.876 65.6885 8.864 65.5525 8.864C65.3605 8.864 65.1885 8.892 65.0365 8.948C64.8885 9.004 64.7545 9.088 64.6345 9.2C64.5185 9.308 64.4125 9.444 64.3165 9.608C64.2245 9.768 64.1405 9.952 64.0645 10.16V14H62.9905V7.922H63.6025C63.7185 7.922 63.7985 7.944 63.8425 7.988C63.8865 8.032 63.9165 8.108 63.9325 8.216L64.0045 9.14ZM71.1835 10.298C71.1835 10.05 71.1475 9.824 71.0755 9.62C71.0075 9.412 70.9055 9.234 70.7695 9.086C70.6375 8.934 70.4755 8.818 70.2835 8.738C70.0915 8.654 69.8735 8.612 69.6295 8.612C69.1175 8.612 68.7115 8.762 68.4115 9.062C68.1155 9.358 67.9315 9.77 67.8595 10.298H71.1835ZM72.0475 13.148C71.9155 13.308 71.7575 13.448 71.5735 13.568C71.3895 13.684 71.1915 13.78 70.9795 13.856C70.7715 13.932 70.5555 13.988 70.3315 14.024C70.1075 14.064 69.8855 14.084 69.6655 14.084C69.2455 14.084 68.8575 14.014 68.5015 13.874C68.1495 13.73 67.8435 13.522 67.5835 13.25C67.3275 12.974 67.1275 12.634 66.9835 12.23C66.8395 11.826 66.7675 11.362 66.7675 10.838C66.7675 10.414 66.8315 10.018 66.9595 9.65C67.0915 9.282 67.2795 8.964 67.5235 8.696C67.7675 8.424 68.0655 8.212 68.4175 8.06C68.7695 7.904 69.1655 7.826 69.6055 7.826C69.9695 7.826 70.3055 7.888 70.6135 8.012C70.9255 8.132 71.1935 8.308 71.4175 8.54C71.6455 8.768 71.8235 9.052 71.9515 9.392C72.0795 9.728 72.1435 10.112 72.1435 10.544C72.1435 10.712 72.1255 10.824 72.0895 10.88C72.0535 10.936 71.9855 10.964 71.8855 10.964H67.8235C67.8355 11.348 67.8875 11.682 67.9795 11.966C68.0755 12.25 68.2075 12.488 68.3755 12.68C68.5435 12.868 68.7435 13.01 68.9755 13.106C69.2075 13.198 69.4675 13.244 69.7555 13.244C70.0235 13.244 70.2535 13.214 70.4455 13.154C70.6415 13.09 70.8095 13.022 70.9495 12.95C71.0895 12.878 71.2055 12.812 71.2975 12.752C71.3935 12.688 71.4755 12.656 71.5435 12.656C71.6315 12.656 71.6995 12.69 71.7475 12.758L72.0475 13.148ZM76.9954 8.924C76.9474 9.012 76.8734 9.056 76.7734 9.056C76.7134 9.056 76.6454 9.034 76.5694 8.99C76.4934 8.946 76.3994 8.898 76.2874 8.846C76.1794 8.79 76.0494 8.74 75.8974 8.696C75.7454 8.648 75.5654 8.624 75.3574 8.624C75.1774 8.624 75.0154 8.648 74.8714 8.696C74.7274 8.74 74.6034 8.802 74.4994 8.882C74.3994 8.962 74.3214 9.056 74.2654 9.164C74.2134 9.268 74.1874 9.382 74.1874 9.506C74.1874 9.662 74.2314 9.792 74.3194 9.896C74.4114 10 74.5314 10.09 74.6794 10.166C74.8274 10.242 74.9954 10.31 75.1834 10.37C75.3714 10.426 75.5634 10.488 75.7594 10.556C75.9594 10.62 76.1534 10.692 76.3414 10.772C76.5294 10.852 76.6974 10.952 76.8454 11.072C76.9934 11.192 77.1114 11.34 77.1994 11.516C77.2914 11.688 77.3374 11.896 77.3374 12.14C77.3374 12.42 77.2874 12.68 77.1874 12.92C77.0874 13.156 76.9394 13.362 76.7434 13.538C76.5474 13.71 76.3074 13.846 76.0234 13.946C75.7394 14.046 75.4114 14.096 75.0394 14.096C74.6154 14.096 74.2314 14.028 73.8874 13.892C73.5434 13.752 73.2514 13.574 73.0114 13.358L73.2634 12.95C73.2954 12.898 73.3334 12.858 73.3774 12.83C73.4214 12.802 73.4774 12.788 73.5454 12.788C73.6174 12.788 73.6934 12.816 73.7734 12.872C73.8534 12.928 73.9494 12.99 74.0614 13.058C74.1774 13.126 74.3174 13.188 74.4814 13.244C74.6454 13.3 74.8494 13.328 75.0934 13.328C75.3014 13.328 75.4834 13.302 75.6394 13.25C75.7954 13.194 75.9254 13.12 76.0294 13.028C76.1334 12.936 76.2094 12.83 76.2574 12.71C76.3094 12.59 76.3354 12.462 76.3354 12.326C76.3354 12.158 76.2894 12.02 76.1974 11.912C76.1094 11.8 75.9914 11.706 75.8434 11.63C75.6954 11.55 75.5254 11.482 75.3334 11.426C75.1454 11.366 74.9514 11.304 74.7514 11.24C74.5554 11.176 74.3614 11.104 74.1694 11.024C73.9814 10.94 73.8134 10.836 73.6654 10.712C73.5174 10.588 73.3974 10.436 73.3054 10.256C73.2174 10.072 73.1734 9.85 73.1734 9.59C73.1734 9.358 73.2214 9.136 73.3174 8.924C73.4134 8.708 73.5534 8.52 73.7374 8.36C73.9214 8.196 74.1474 8.066 74.4154 7.97C74.6834 7.874 74.9894 7.826 75.3334 7.826C75.7334 7.826 76.0914 7.89 76.4074 8.018C76.7274 8.142 77.0034 8.314 77.2354 8.534L76.9954 8.924ZM82.7148 10.298C82.7148 10.05 82.6788 9.824 82.6068 9.62C82.5388 9.412 82.4368 9.234 82.3008 9.086C82.1688 8.934 82.0068 8.818 81.8148 8.738C81.6228 8.654 81.4048 8.612 81.1608 8.612C80.6488 8.612 80.2428 8.762 79.9428 9.062C79.6468 9.358 79.4628 9.77 79.3908 10.298H82.7148ZM83.5788 13.148C83.4468 13.308 83.2888 13.448 83.1048 13.568C82.9208 13.684 82.7228 13.78 82.5108 13.856C82.3028 13.932 82.0868 13.988 81.8628 14.024C81.6388 14.064 81.4168 14.084 81.1968 14.084C80.7768 14.084 80.3888 14.014 80.0328 13.874C79.6808 13.73 79.3748 13.522 79.1148 13.25C78.8588 12.974 78.6588 12.634 78.5148 12.23C78.3708 11.826 78.2988 11.362 78.2988 10.838C78.2988 10.414 78.3628 10.018 78.4908 9.65C78.6228 9.282 78.8108 8.964 79.0548 8.696C79.2988 8.424 79.5968 8.212 79.9488 8.06C80.3008 7.904 80.6968 7.826 81.1368 7.826C81.5008 7.826 81.8368 7.888 82.1448 8.012C82.4568 8.132 82.7248 8.308 82.9488 8.54C83.1768 8.768 83.3548 9.052 83.4828 9.392C83.6108 9.728 83.6748 10.112 83.6748 10.544C83.6748 10.712 83.6568 10.824 83.6208 10.88C83.5848 10.936 83.5168 10.964 83.4168 10.964H79.3548C79.3668 11.348 79.4188 11.682 79.5108 11.966C79.6068 12.25 79.7388 12.488 79.9068 12.68C80.0748 12.868 80.2748 13.01 80.5068 13.106C80.7388 13.198 80.9988 13.244 81.2868 13.244C81.5548 13.244 81.7848 13.214 81.9768 13.154C82.1728 13.09 82.3408 13.022 82.4808 12.95C82.6208 12.878 82.7368 12.812 82.8288 12.752C82.9248 12.688 83.0068 12.656 83.0748 12.656C83.1628 12.656 83.2308 12.69 83.2788 12.758L83.5788 13.148ZM86.0006 9.14C86.1926 8.724 86.4286 8.4 86.7086 8.168C86.9886 7.932 87.3306 7.814 87.7346 7.814C87.8626 7.814 87.9846 7.828 88.1006 7.856C88.2206 7.884 88.3266 7.928 88.4186 7.988L88.3406 8.786C88.3166 8.886 88.2566 8.936 88.1606 8.936C88.1046 8.936 88.0226 8.924 87.9146 8.9C87.8066 8.876 87.6846 8.864 87.5486 8.864C87.3566 8.864 87.1846 8.892 87.0326 8.948C86.8846 9.004 86.7506 9.088 86.6306 9.2C86.5146 9.308 86.4086 9.444 86.3126 9.608C86.2206 9.768 86.1366 9.952 86.0606 10.16V14H84.9866V7.922H85.5986C85.7146 7.922 85.7946 7.944 85.8386 7.988C85.8826 8.032 85.9126 8.108 85.9286 8.216L86.0006 9.14ZM94.5657 7.922L92.0877 14H91.1277L88.6497 7.922H89.5197C89.6077 7.922 89.6797 7.944 89.7357 7.988C89.7917 8.032 89.8297 8.084 89.8497 8.144L91.3917 12.056C91.4397 12.204 91.4817 12.348 91.5177 12.488C91.5537 12.628 91.5877 12.768 91.6197 12.908C91.6517 12.768 91.6857 12.628 91.7217 12.488C91.7577 12.348 91.8017 12.204 91.8537 12.056L93.4137 8.144C93.4377 8.08 93.4777 8.028 93.5337 7.988C93.5897 7.944 93.6557 7.922 93.7317 7.922H94.5657ZM99.4492 10.298C99.4492 10.05 99.4132 9.824 99.3412 9.62C99.2732 9.412 99.1712 9.234 99.0352 9.086C98.9032 8.934 98.7412 8.818 98.5492 8.738C98.3572 8.654 98.1392 8.612 97.8952 8.612C97.3832 8.612 96.9772 8.762 96.6772 9.062C96.3812 9.358 96.1972 9.77 96.1252 10.298H99.4492ZM100.313 13.148C100.181 13.308 100.023 13.448 99.8392 13.568C99.6552 13.684 99.4572 13.78 99.2452 13.856C99.0372 13.932 98.8212 13.988 98.5972 14.024C98.3732 14.064 98.1512 14.084 97.9312 14.084C97.5112 14.084 97.1232 14.014 96.7672 13.874C96.4152 13.73 96.1092 13.522 95.8492 13.25C95.5932 12.974 95.3932 12.634 95.2492 12.23C95.1052 11.826 95.0332 11.362 95.0332 10.838C95.0332 10.414 95.0972 10.018 95.2252 9.65C95.3572 9.282 95.5452 8.964 95.7892 8.696C96.0332 8.424 96.3312 8.212 96.6832 8.06C97.0352 7.904 97.4312 7.826 97.8712 7.826C98.2352 7.826 98.5712 7.888 98.8792 8.012C99.1912 8.132 99.4592 8.308 99.6832 8.54C99.9112 8.768 100.089 9.052 100.217 9.392C100.345 9.728 100.409 10.112 100.409 10.544C100.409 10.712 100.391 10.824 100.355 10.88C100.319 10.936 100.251 10.964 100.151 10.964H96.0892C96.1012 11.348 96.1532 11.682 96.2452 11.966C96.3412 12.25 96.4732 12.488 96.6412 12.68C96.8092 12.868 97.0092 13.01 97.2412 13.106C97.4732 13.198 97.7332 13.244 98.0212 13.244C98.2892 13.244 98.5192 13.214 98.7112 13.154C98.9072 13.09 99.0752 13.022 99.2152 12.95C99.3552 12.878 99.4712 12.812 99.5632 12.752C99.6592 12.688 99.7412 12.656 99.8092 12.656C99.8972 12.656 99.9652 12.69 100.013 12.758L100.313 13.148ZM105.681 9.368C105.481 9.1 105.265 8.914 105.033 8.81C104.801 8.702 104.541 8.648 104.253 8.648C103.689 8.648 103.255 8.85 102.951 9.254C102.647 9.658 102.495 10.234 102.495 10.982C102.495 11.378 102.529 11.718 102.597 12.002C102.665 12.282 102.765 12.514 102.897 12.698C103.029 12.878 103.191 13.01 103.383 13.094C103.575 13.178 103.793 13.22 104.037 13.22C104.389 13.22 104.695 13.14 104.955 12.98C105.219 12.82 105.461 12.594 105.681 12.302V9.368ZM106.749 5.162V14H106.113C105.961 14 105.865 13.926 105.825 13.778L105.729 13.04C105.469 13.352 105.173 13.604 104.841 13.796C104.509 13.988 104.125 14.084 103.689 14.084C103.341 14.084 103.025 14.018 102.741 13.886C102.457 13.75 102.215 13.552 102.015 13.292C101.815 13.032 101.661 12.708 101.553 12.32C101.445 11.932 101.391 11.486 101.391 10.982C101.391 10.534 101.451 10.118 101.571 9.734C101.691 9.346 101.863 9.01 102.087 8.726C102.311 8.442 102.585 8.22 102.909 8.06C103.237 7.896 103.605 7.814 104.013 7.814C104.385 7.814 104.703 7.878 104.967 8.006C105.235 8.13 105.473 8.304 105.681 8.528V5.162H106.749ZM108.256 13.34C108.256 13.236 108.274 13.138 108.31 13.046C108.35 12.954 108.402 12.874 108.466 12.806C108.534 12.738 108.614 12.684 108.706 12.644C108.798 12.604 108.896 12.584 109 12.584C109.104 12.584 109.202 12.604 109.294 12.644C109.386 12.684 109.466 12.738 109.534 12.806C109.602 12.874 109.656 12.954 109.696 13.046C109.736 13.138 109.756 13.236 109.756 13.34C109.756 13.448 109.736 13.548 109.696 13.64C109.656 13.728 109.602 13.806 109.534 13.874C109.466 13.942 109.386 13.994 109.294 14.03C109.202 14.07 109.104 14.09 109 14.09C108.896 14.09 108.798 14.07 108.706 14.03C108.614 13.994 108.534 13.942 108.466 13.874C108.402 13.806 108.35 13.728 108.31 13.64C108.274 13.548 108.256 13.448 108.256 13.34Z" fill="white"/>
<g clip-path="url(#clip1_3319_2152)">
<path d="M123.044 5.402V14H122.024V7.682C122.024 7.598 122.026 7.508 122.03 7.412C122.038 7.316 122.046 7.218 122.054 7.118L119.102 12.494C119.01 12.674 118.87 12.764 118.682 12.764H118.514C118.326 12.764 118.186 12.674 118.094 12.494L115.082 7.094C115.106 7.306 115.118 7.502 115.118 7.682V14H114.098V5.402H114.956C115.06 5.402 115.14 5.412 115.196 5.432C115.252 5.452 115.306 5.508 115.358 5.6L118.328 10.892C118.376 10.988 118.422 11.088 118.466 11.192C118.514 11.296 118.558 11.402 118.598 11.51C118.638 11.402 118.68 11.296 118.724 11.192C118.768 11.084 118.816 10.982 118.868 10.886L121.784 5.6C121.832 5.508 121.884 5.452 121.94 5.432C122 5.412 122.082 5.402 122.186 5.402H123.044ZM128.109 11.264C127.617 11.28 127.197 11.32 126.849 11.384C126.505 11.444 126.223 11.524 126.003 11.624C125.787 11.724 125.629 11.842 125.529 11.978C125.433 12.114 125.385 12.266 125.385 12.434C125.385 12.594 125.411 12.732 125.463 12.848C125.515 12.964 125.585 13.06 125.673 13.136C125.765 13.208 125.871 13.262 125.991 13.298C126.115 13.33 126.247 13.346 126.387 13.346C126.575 13.346 126.747 13.328 126.903 13.292C127.059 13.252 127.205 13.196 127.341 13.124C127.481 13.052 127.613 12.966 127.737 12.866C127.865 12.766 127.989 12.652 128.109 12.524V11.264ZM124.659 8.78C124.995 8.456 125.357 8.214 125.745 8.054C126.133 7.894 126.563 7.814 127.035 7.814C127.375 7.814 127.677 7.87 127.941 7.982C128.205 8.094 128.427 8.25 128.607 8.45C128.787 8.65 128.923 8.892 129.015 9.176C129.107 9.46 129.153 9.772 129.153 10.112V14H128.679C128.575 14 128.495 13.984 128.439 13.952C128.383 13.916 128.339 13.848 128.307 13.748L128.187 13.172C128.027 13.32 127.871 13.452 127.719 13.568C127.567 13.68 127.407 13.776 127.239 13.856C127.071 13.932 126.891 13.99 126.699 14.03C126.511 14.074 126.301 14.096 126.069 14.096C125.833 14.096 125.611 14.064 125.403 14C125.195 13.932 125.013 13.832 124.857 13.7C124.705 13.568 124.583 13.402 124.491 13.202C124.403 12.998 124.359 12.758 124.359 12.482C124.359 12.242 124.425 12.012 124.557 11.792C124.689 11.568 124.903 11.37 125.199 11.198C125.495 11.026 125.881 10.886 126.357 10.778C126.833 10.666 127.417 10.602 128.109 10.586V10.112C128.109 9.64 128.007 9.284 127.803 9.044C127.599 8.8 127.301 8.678 126.909 8.678C126.645 8.678 126.423 8.712 126.243 8.78C126.067 8.844 125.913 8.918 125.781 9.002C125.653 9.082 125.541 9.156 125.445 9.224C125.353 9.288 125.261 9.32 125.169 9.32C125.097 9.32 125.035 9.302 124.983 9.266C124.931 9.226 124.887 9.178 124.851 9.122L124.659 8.78ZM134.74 9.368C134.54 9.1 134.324 8.914 134.092 8.81C133.86 8.702 133.6 8.648 133.312 8.648C132.748 8.648 132.314 8.85 132.01 9.254C131.706 9.658 131.554 10.234 131.554 10.982C131.554 11.378 131.588 11.718 131.656 12.002C131.724 12.282 131.824 12.514 131.956 12.698C132.088 12.878 132.25 13.01 132.442 13.094C132.634 13.178 132.852 13.22 133.096 13.22C133.448 13.22 133.754 13.14 134.014 12.98C134.278 12.82 134.52 12.594 134.74 12.302V9.368ZM135.808 5.162V14H135.172C135.02 14 134.924 13.926 134.884 13.778L134.788 13.04C134.528 13.352 134.232 13.604 133.9 13.796C133.568 13.988 133.184 14.084 132.748 14.084C132.4 14.084 132.084 14.018 131.8 13.886C131.516 13.75 131.274 13.552 131.074 13.292C130.874 13.032 130.72 12.708 130.612 12.32C130.504 11.932 130.45 11.486 130.45 10.982C130.45 10.534 130.51 10.118 130.63 9.734C130.75 9.346 130.922 9.01 131.146 8.726C131.37 8.442 131.644 8.22 131.968 8.06C132.296 7.896 132.664 7.814 133.072 7.814C133.444 7.814 133.762 7.878 134.026 8.006C134.294 8.13 134.532 8.304 134.74 8.528V5.162H135.808ZM141.562 10.298C141.562 10.05 141.526 9.824 141.454 9.62C141.386 9.412 141.284 9.234 141.148 9.086C141.016 8.934 140.854 8.818 140.662 8.738C140.47 8.654 140.252 8.612 140.008 8.612C139.496 8.612 139.09 8.762 138.79 9.062C138.494 9.358 138.31 9.77 138.238 10.298H141.562ZM142.426 13.148C142.294 13.308 142.136 13.448 141.952 13.568C141.768 13.684 141.57 13.78 141.358 13.856C141.15 13.932 140.934 13.988 140.71 14.024C140.486 14.064 140.264 14.084 140.044 14.084C139.624 14.084 139.236 14.014 138.88 13.874C138.528 13.73 138.222 13.522 137.962 13.25C137.706 12.974 137.506 12.634 137.362 12.23C137.218 11.826 137.146 11.362 137.146 10.838C137.146 10.414 137.21 10.018 137.338 9.65C137.47 9.282 137.658 8.964 137.902 8.696C138.146 8.424 138.444 8.212 138.796 8.06C139.148 7.904 139.544 7.826 139.984 7.826C140.348 7.826 140.684 7.888 140.992 8.012C141.304 8.132 141.572 8.308 141.796 8.54C142.024 8.768 142.202 9.052 142.33 9.392C142.458 9.728 142.522 10.112 142.522 10.544C142.522 10.712 142.504 10.824 142.468 10.88C142.432 10.936 142.364 10.964 142.264 10.964H138.202C138.214 11.348 138.266 11.682 138.358 11.966C138.454 12.25 138.586 12.488 138.754 12.68C138.922 12.868 139.122 13.01 139.354 13.106C139.586 13.198 139.846 13.244 140.134 13.244C140.402 13.244 140.632 13.214 140.824 13.154C141.02 13.09 141.188 13.022 141.328 12.95C141.468 12.878 141.584 12.812 141.676 12.752C141.772 12.688 141.854 12.656 141.922 12.656C142.01 12.656 142.078 12.69 142.126 12.758L142.426 13.148ZM155.041 7.922L153.073 14H152.227C152.123 14 152.051 13.932 152.01 13.796L150.667 9.674C150.635 9.582 150.609 9.49 150.589 9.398C150.569 9.302 150.549 9.208 150.529 9.116C150.509 9.208 150.489 9.302 150.469 9.398C150.449 9.49 150.423 9.584 150.391 9.68L149.023 13.796C148.987 13.932 148.907 14 148.783 14H147.979L146.01 7.922H146.851C146.935 7.922 147.005 7.944 147.061 7.988C147.121 8.032 147.161 8.084 147.181 8.144L148.345 12.056C148.413 12.344 148.467 12.616 148.507 12.872C148.543 12.74 148.579 12.606 148.615 12.47C148.655 12.334 148.697 12.196 148.741 12.056L150.025 8.12C150.045 8.06 150.079 8.01 150.127 7.97C150.179 7.93 150.241 7.91 150.313 7.91H150.781C150.861 7.91 150.927 7.93 150.979 7.97C151.031 8.01 151.067 8.06 151.087 8.12L152.341 12.056C152.385 12.196 152.425 12.334 152.461 12.47C152.497 12.606 152.531 12.74 152.562 12.872C152.582 12.74 152.607 12.608 152.635 12.476C152.667 12.34 152.701 12.2 152.737 12.056L153.925 8.144C153.945 8.08 153.983 8.028 154.039 7.988C154.095 7.944 154.161 7.922 154.237 7.922H155.041ZM157.208 7.922V14H156.14V7.922H157.208ZM157.436 6.014C157.436 6.118 157.414 6.216 157.37 6.308C157.33 6.396 157.274 6.476 157.202 6.548C157.134 6.616 157.052 6.67 156.956 6.71C156.864 6.75 156.766 6.77 156.662 6.77C156.558 6.77 156.46 6.75 156.368 6.71C156.28 6.67 156.202 6.616 156.134 6.548C156.066 6.476 156.012 6.396 155.972 6.308C155.932 6.216 155.912 6.118 155.912 6.014C155.912 5.91 155.932 5.812 155.972 5.72C156.012 5.624 156.066 5.542 156.134 5.474C156.202 5.402 156.28 5.346 156.368 5.306C156.46 5.266 156.558 5.246 156.662 5.246C156.766 5.246 156.864 5.266 156.956 5.306C157.052 5.346 157.134 5.402 157.202 5.474C157.274 5.542 157.33 5.624 157.37 5.72C157.414 5.812 157.436 5.91 157.436 6.014ZM160.829 14.096C160.349 14.096 159.979 13.962 159.719 13.694C159.463 13.426 159.335 13.04 159.335 12.536V8.816H158.603C158.539 8.816 158.485 8.798 158.441 8.762C158.397 8.722 158.375 8.662 158.375 8.582V8.156L159.371 8.03L159.617 6.152C159.629 6.092 159.655 6.044 159.695 6.008C159.739 5.968 159.795 5.948 159.863 5.948H160.403V8.042H162.161V8.816H160.403V12.464C160.403 12.72 160.465 12.91 160.589 13.034C160.713 13.158 160.873 13.22 161.069 13.22C161.181 13.22 161.277 13.206 161.357 13.178C161.441 13.146 161.513 13.112 161.573 13.076C161.633 13.04 161.683 13.008 161.723 12.98C161.767 12.948 161.805 12.932 161.837 12.932C161.893 12.932 161.943 12.966 161.987 13.034L162.299 13.544C162.115 13.716 161.893 13.852 161.633 13.952C161.373 14.048 161.105 14.096 160.829 14.096ZM164.338 8.732C164.598 8.456 164.886 8.236 165.202 8.072C165.518 7.908 165.882 7.826 166.294 7.826C166.626 7.826 166.918 7.882 167.17 7.994C167.426 8.102 167.638 8.258 167.806 8.462C167.978 8.662 168.108 8.904 168.196 9.188C168.284 9.472 168.328 9.786 168.328 10.13V14H167.254V10.13C167.254 9.67 167.148 9.314 166.936 9.062C166.728 8.806 166.41 8.678 165.982 8.678C165.666 8.678 165.37 8.754 165.094 8.906C164.822 9.058 164.57 9.264 164.338 9.524V14H163.264V5.162H164.338V8.732Z" fill="white"/>
<path fill-rule="evenodd" clip-rule="evenodd" d="M182 14.2715C178.934 12.5252 177.224 10.7896 176.397 9.28361C175.55 7.74228 175.624 6.4441 176.094 5.52273C177.059 3.62892 179.804 3.02333 181.477 5.13865L182 5.80001L182.523 5.13868C184.195 3.02327 186.941 3.62896 187.906 5.52273C188.376 6.44409 188.449 7.74226 187.603 9.28359C186.776 10.7895 185.066 12.5252 182 14.2715ZM182 3.73726C179.647 1.50152 176.176 2.42555 174.906 4.91723C174.209 6.2847 174.199 8.05212 175.228 9.92536C176.247 11.782 178.28 13.7417 181.677 15.6194L182 15.7976L182.322 15.6194C185.719 13.7417 187.752 11.782 188.772 9.92537C189.8 8.05214 189.791 6.28472 189.094 4.91723C187.824 2.4255 184.353 1.50155 182 3.73726Z" fill="#FF3F3A"/>
<path d="M195.92 12.536C196.116 12.8 196.33 12.986 196.562 13.094C196.798 13.202 197.056 13.256 197.336 13.256C197.908 13.256 198.346 13.054 198.65 12.65C198.954 12.246 199.106 11.644 199.106 10.844C199.106 10.1 198.97 9.554 198.698 9.206C198.43 8.854 198.046 8.678 197.546 8.678C197.198 8.678 196.894 8.758 196.634 8.918C196.378 9.078 196.14 9.304 195.92 9.596V12.536ZM195.92 8.798C196.176 8.502 196.464 8.266 196.784 8.09C197.108 7.914 197.48 7.826 197.9 7.826C198.256 7.826 198.576 7.894 198.86 8.03C199.148 8.166 199.392 8.364 199.592 8.624C199.792 8.88 199.944 9.192 200.048 9.56C200.156 9.928 200.21 10.342 200.21 10.802C200.21 11.294 200.15 11.742 200.03 12.146C199.91 12.55 199.736 12.896 199.508 13.184C199.284 13.468 199.01 13.69 198.686 13.85C198.362 14.006 197.998 14.084 197.594 14.084C197.194 14.084 196.856 14.01 196.58 13.862C196.308 13.71 196.07 13.496 195.866 13.22L195.812 13.772C195.78 13.924 195.688 14 195.536 14H194.846V5.162H195.92V8.798ZM206.653 7.922L203.263 15.794C203.227 15.874 203.181 15.938 203.125 15.986C203.073 16.034 202.991 16.058 202.879 16.058H202.087L203.197 13.646L200.689 7.922H201.613C201.705 7.922 201.777 7.946 201.829 7.994C201.885 8.038 201.923 8.088 201.943 8.144L203.569 11.972C203.633 12.14 203.687 12.316 203.73 12.5C203.787 12.312 203.847 12.134 203.911 11.966L205.489 8.144C205.513 8.08 205.553 8.028 205.609 7.988C205.669 7.944 205.735 7.922 205.807 7.922H206.653ZM216.661 12.224C216.725 12.224 216.781 12.25 216.829 12.302L217.291 12.8C216.939 13.208 216.511 13.526 216.007 13.754C215.507 13.982 214.901 14.096 214.189 14.096C213.573 14.096 213.013 13.99 212.509 13.778C212.005 13.562 211.575 13.262 211.219 12.878C210.863 12.49 210.587 12.026 210.391 11.486C210.195 10.946 210.097 10.352 210.097 9.704C210.097 9.056 210.199 8.462 210.403 7.922C210.607 7.382 210.893 6.918 211.261 6.53C211.633 6.142 212.077 5.842 212.593 5.63C213.109 5.414 213.679 5.306 214.303 5.306C214.915 5.306 215.455 5.404 215.923 5.6C216.391 5.796 216.803 6.062 217.159 6.398L216.775 6.932C216.751 6.972 216.719 7.006 216.679 7.034C216.643 7.058 216.593 7.07 216.529 7.07C216.457 7.07 216.369 7.032 216.265 6.956C216.161 6.876 216.025 6.788 215.857 6.692C215.689 6.596 215.479 6.51 215.227 6.434C214.975 6.354 214.665 6.314 214.297 6.314C213.853 6.314 213.447 6.392 213.079 6.548C212.711 6.7 212.393 6.922 212.125 7.214C211.861 7.506 211.655 7.862 211.507 8.282C211.359 8.702 211.285 9.176 211.285 9.704C211.285 10.24 211.361 10.718 211.513 11.138C211.669 11.558 211.879 11.914 212.143 12.206C212.411 12.494 212.725 12.714 213.085 12.866C213.449 13.018 213.841 13.094 214.261 13.094C214.517 13.094 214.747 13.08 214.951 13.052C215.159 13.02 215.349 12.972 215.521 12.908C215.697 12.844 215.859 12.764 216.007 12.668C216.159 12.568 216.309 12.45 216.457 12.314C216.525 12.254 216.593 12.224 216.661 12.224ZM219.368 9.14C219.56 8.724 219.796 8.4 220.076 8.168C220.356 7.932 220.698 7.814 221.102 7.814C221.23 7.814 221.352 7.828 221.468 7.856C221.588 7.884 221.694 7.928 221.786 7.988L221.708 8.786C221.684 8.886 221.624 8.936 221.528 8.936C221.472 8.936 221.39 8.924 221.282 8.9C221.174 8.876 221.052 8.864 220.916 8.864C220.724 8.864 220.552 8.892 220.4 8.948C220.252 9.004 220.118 9.088 219.998 9.2C219.882 9.308 219.776 9.444 219.68 9.608C219.588 9.768 219.504 9.952 219.428 10.16V14H218.354V7.922H218.966C219.082 7.922 219.162 7.944 219.206 7.988C219.25 8.032 219.28 8.108 219.296 8.216L219.368 9.14ZM226.547 10.298C226.547 10.05 226.511 9.824 226.439 9.62C226.371 9.412 226.269 9.234 226.133 9.086C226.001 8.934 225.839 8.818 225.647 8.738C225.455 8.654 225.237 8.612 224.993 8.612C224.481 8.612 224.075 8.762 223.775 9.062C223.479 9.358 223.295 9.77 223.223 10.298H226.547ZM227.411 13.148C227.279 13.308 227.121 13.448 226.937 13.568C226.753 13.684 226.555 13.78 226.343 13.856C226.135 13.932 225.919 13.988 225.695 14.024C225.471 14.064 225.249 14.084 225.029 14.084C224.609 14.084 224.221 14.014 223.865 13.874C223.513 13.73 223.207 13.522 222.947 13.25C222.691 12.974 222.491 12.634 222.347 12.23C222.203 11.826 222.131 11.362 222.131 10.838C222.131 10.414 222.195 10.018 222.323 9.65C222.455 9.282 222.643 8.964 222.887 8.696C223.131 8.424 223.429 8.212 223.781 8.06C224.133 7.904 224.529 7.826 224.969 7.826C225.333 7.826 225.669 7.888 225.977 8.012C226.289 8.132 226.557 8.308 226.781 8.54C227.009 8.768 227.187 9.052 227.315 9.392C227.443 9.728 227.507 10.112 227.507 10.544C227.507 10.712 227.489 10.824 227.453 10.88C227.417 10.936 227.349 10.964 227.249 10.964H223.187C223.199 11.348 223.251 11.682 223.343 11.966C223.439 12.25 223.571 12.488 223.739 12.68C223.907 12.868 224.107 13.01 224.339 13.106C224.571 13.198 224.831 13.244 225.119 13.244C225.387 13.244 225.617 13.214 225.809 13.154C226.005 13.09 226.173 13.022 226.313 12.95C226.453 12.878 226.569 12.812 226.661 12.752C226.757 12.688 226.839 12.656 226.907 12.656C226.995 12.656 227.063 12.69 227.111 12.758L227.411 13.148ZM232.113 11.264C231.621 11.28 231.201 11.32 230.853 11.384C230.509 11.444 230.227 11.524 230.007 11.624C229.791 11.724 229.633 11.842 229.533 11.978C229.437 12.114 229.389 12.266 229.389 12.434C229.389 12.594 229.415 12.732 229.467 12.848C229.519 12.964 229.589 13.06 229.677 13.136C229.769 13.208 229.875 13.262 229.995 13.298C230.119 13.33 230.251 13.346 230.391 13.346C230.579 13.346 230.751 13.328 230.907 13.292C231.063 13.252 231.209 13.196 231.345 13.124C231.485 13.052 231.617 12.966 231.741 12.866C231.869 12.766 231.993 12.652 232.113 12.524V11.264ZM228.663 8.78C228.999 8.456 229.361 8.214 229.749 8.054C230.137 7.894 230.567 7.814 231.039 7.814C231.379 7.814 231.681 7.87 231.945 7.982C232.209 8.094 232.431 8.25 232.611 8.45C232.791 8.65 232.927 8.892 233.019 9.176C233.111 9.46 233.157 9.772 233.157 10.112V14H232.683C232.579 14 232.499 13.984 232.443 13.952C232.387 13.916 232.343 13.848 232.311 13.748L232.191 13.172C232.031 13.32 231.875 13.452 231.723 13.568C231.571 13.68 231.411 13.776 231.243 13.856C231.075 13.932 230.895 13.99 230.703 14.03C230.515 14.074 230.305 14.096 230.073 14.096C229.837 14.096 229.615 14.064 229.407 14C229.199 13.932 229.017 13.832 228.861 13.7C228.709 13.568 228.587 13.402 228.495 13.202C228.407 12.998 228.363 12.758 228.363 12.482C228.363 12.242 228.429 12.012 228.561 11.792C228.693 11.568 228.907 11.37 229.203 11.198C229.499 11.026 229.885 10.886 230.361 10.778C230.837 10.666 231.421 10.602 232.113 10.586V10.112C232.113 9.64 232.011 9.284 231.807 9.044C231.603 8.8 231.305 8.678 230.913 8.678C230.649 8.678 230.427 8.712 230.247 8.78C230.071 8.844 229.917 8.918 229.785 9.002C229.657 9.082 229.545 9.156 229.449 9.224C229.357 9.288 229.265 9.32 229.173 9.32C229.101 9.32 229.039 9.302 228.987 9.266C228.935 9.226 228.891 9.178 228.855 9.122L228.663 8.78ZM236.567 14.096C236.087 14.096 235.717 13.962 235.457 13.694C235.201 13.426 235.073 13.04 235.073 12.536V8.816H234.341C234.277 8.816 234.223 8.798 234.179 8.762C234.135 8.722 234.113 8.662 234.113 8.582V8.156L235.109 8.03L235.355 6.152C235.367 6.092 235.393 6.044 235.433 6.008C235.477 5.968 235.533 5.948 235.601 5.948H236.141V8.042H237.899V8.816H236.141V12.464C236.141 12.72 236.203 12.91 236.327 13.034C236.451 13.158 236.611 13.22 236.807 13.22C236.919 13.22 237.015 13.206 237.095 13.178C237.179 13.146 237.251 13.112 237.311 13.076C237.371 13.04 237.421 13.008 237.461 12.98C237.505 12.948 237.543 12.932 237.575 12.932C237.631 12.932 237.681 12.966 237.725 13.034L238.037 13.544C237.853 13.716 237.631 13.852 237.371 13.952C237.111 14.048 236.843 14.096 236.567 14.096ZM243.035 10.298C243.035 10.05 242.999 9.824 242.927 9.62C242.859 9.412 242.757 9.234 242.621 9.086C242.489 8.934 242.327 8.818 242.135 8.738C241.943 8.654 241.725 8.612 241.481 8.612C240.969 8.612 240.563 8.762 240.263 9.062C239.967 9.358 239.783 9.77 239.711 10.298H243.035ZM243.899 13.148C243.767 13.308 243.609 13.448 243.425 13.568C243.241 13.684 243.043 13.78 242.831 13.856C242.623 13.932 242.407 13.988 242.183 14.024C241.959 14.064 241.737 14.084 241.517 14.084C241.097 14.084 240.709 14.014 240.353 13.874C240.001 13.73 239.695 13.522 239.435 13.25C239.179 12.974 238.979 12.634 238.835 12.23C238.691 11.826 238.619 11.362 238.619 10.838C238.619 10.414 238.683 10.018 238.811 9.65C238.943 9.282 239.131 8.964 239.375 8.696C239.619 8.424 239.917 8.212 240.269 8.06C240.621 7.904 241.017 7.826 241.457 7.826C241.821 7.826 242.157 7.888 242.465 8.012C242.777 8.132 243.045 8.308 243.269 8.54C243.497 8.768 243.675 9.052 243.803 9.392C243.931 9.728 243.995 10.112 243.995 10.544C243.995 10.712 243.977 10.824 243.941 10.88C243.905 10.936 243.837 10.964 243.737 10.964H239.675C239.687 11.348 239.739 11.682 239.831 11.966C239.927 12.25 240.059 12.488 240.227 12.68C240.395 12.868 240.595 13.01 240.827 13.106C241.059 13.198 241.319 13.244 241.607 13.244C241.875 13.244 242.105 13.214 242.297 13.154C242.493 13.09 242.661 13.022 242.801 12.95C242.941 12.878 243.057 12.812 243.149 12.752C243.245 12.688 243.327 12.656 243.395 12.656C243.483 12.656 243.551 12.69 243.599 12.758L243.899 13.148ZM250.217 14H249.191C249.103 14 249.033 13.978 248.981 13.934C248.933 13.886 248.893 13.834 248.861 13.778L247.331 11.396C247.315 11.452 247.297 11.508 247.277 11.564C247.261 11.616 247.237 11.664 247.205 11.708L245.789 13.778C245.749 13.834 245.705 13.886 245.657 13.934C245.613 13.978 245.551 14 245.471 14H244.517L246.647 10.88L244.601 7.922H245.627C245.715 7.922 245.779 7.936 245.819 7.964C245.859 7.992 245.895 8.032 245.927 8.084L247.421 10.364C247.453 10.248 247.503 10.136 247.571 10.028L248.879 8.108C248.915 8.052 248.953 8.008 248.993 7.976C249.037 7.94 249.089 7.922 249.149 7.922H250.133L248.087 10.826L250.217 14ZM258.922 6.746C258.886 6.806 258.846 6.852 258.802 6.884C258.762 6.912 258.712 6.926 258.652 6.926C258.584 6.926 258.504 6.892 258.412 6.824C258.32 6.756 258.204 6.682 258.064 6.602C257.928 6.518 257.762 6.442 257.566 6.374C257.374 6.306 257.14 6.272 256.864 6.272C256.604 6.272 256.374 6.308 256.174 6.38C255.978 6.448 255.812 6.542 255.676 6.662C255.544 6.782 255.444 6.924 255.376 7.088C255.308 7.248 255.274 7.422 255.274 7.61C255.274 7.85 255.332 8.05 255.448 8.21C255.568 8.366 255.724 8.5 255.916 8.612C256.112 8.724 256.332 8.822 256.576 8.906C256.824 8.986 257.076 9.07 257.332 9.158C257.592 9.246 257.844 9.346 258.088 9.458C258.336 9.566 258.556 9.704 258.748 9.872C258.944 10.04 259.1 10.246 259.216 10.49C259.336 10.734 259.396 11.034 259.396 11.39C259.396 11.766 259.332 12.12 259.204 12.452C259.076 12.78 258.888 13.066 258.64 13.31C258.396 13.554 258.094 13.746 257.734 13.886C257.378 14.026 256.972 14.096 256.516 14.096C255.956 14.096 255.448 13.996 254.992 13.796C254.536 13.592 254.146 13.318 253.822 12.974L254.158 12.422C254.19 12.378 254.228 12.342 254.272 12.314C254.32 12.282 254.372 12.266 254.428 12.266C254.48 12.266 254.538 12.288 254.602 12.332C254.67 12.372 254.746 12.424 254.83 12.488C254.914 12.552 255.01 12.622 255.118 12.698C255.226 12.774 255.348 12.844 255.484 12.908C255.624 12.972 255.782 13.026 255.958 13.07C256.134 13.11 256.332 13.13 256.552 13.13C256.828 13.13 257.074 13.092 257.29 13.016C257.506 12.94 257.688 12.834 257.836 12.698C257.988 12.558 258.104 12.392 258.184 12.2C258.264 12.008 258.304 11.794 258.304 11.558C258.304 11.298 258.244 11.086 258.124 10.922C258.008 10.754 257.854 10.614 257.662 10.502C257.47 10.39 257.25 10.296 257.002 10.22C256.754 10.14 256.502 10.06 256.246 9.98C255.99 9.896 255.738 9.8 255.49 9.692C255.242 9.584 255.022 9.444 254.83 9.272C254.638 9.1 254.482 8.886 254.362 8.63C254.246 8.37 254.188 8.05 254.188 7.67C254.188 7.366 254.246 7.072 254.362 6.788C254.482 6.504 254.654 6.252 254.878 6.032C255.106 5.812 255.384 5.636 255.712 5.504C256.044 5.372 256.424 5.306 256.852 5.306C257.332 5.306 257.768 5.382 258.16 5.534C258.556 5.686 258.904 5.906 259.204 6.194L258.922 6.746ZM262.384 14.096C261.904 14.096 261.534 13.962 261.274 13.694C261.018 13.426 260.89 13.04 260.89 12.536V8.816H260.158C260.094 8.816 260.04 8.798 259.996 8.762C259.952 8.722 259.93 8.662 259.93 8.582V8.156L260.926 8.03L261.172 6.152C261.184 6.092 261.21 6.044 261.25 6.008C261.294 5.968 261.35 5.948 261.418 5.948H261.958V8.042H263.716V8.816H261.958V12.464C261.958 12.72 262.02 12.91 262.144 13.034C262.268 13.158 262.428 13.22 262.624 13.22C262.736 13.22 262.832 13.206 262.912 13.178C262.996 13.146 263.068 13.112 263.128 13.076C263.188 13.04 263.238 13.008 263.278 12.98C263.322 12.948 263.36 12.932 263.392 12.932C263.448 12.932 263.498 12.966 263.542 13.034L263.854 13.544C263.67 13.716 263.448 13.852 263.188 13.952C262.928 14.048 262.66 14.096 262.384 14.096ZM269.817 7.922V14H269.181C269.029 14 268.933 13.926 268.893 13.778L268.809 13.124C268.545 13.416 268.249 13.652 267.921 13.832C267.593 14.008 267.217 14.096 266.793 14.096C266.461 14.096 266.167 14.042 265.911 13.934C265.659 13.822 265.447 13.666 265.275 13.466C265.103 13.266 264.973 13.024 264.885 12.74C264.801 12.456 264.759 12.142 264.759 11.798V7.922H265.827V11.798C265.827 12.258 265.931 12.614 266.139 12.866C266.351 13.118 266.673 13.244 267.105 13.244C267.421 13.244 267.715 13.17 267.987 13.022C268.263 12.87 268.517 12.662 268.749 12.398V7.922H269.817ZM275.47 9.368C275.27 9.1 275.054 8.914 274.822 8.81C274.59 8.702 274.33 8.648 274.042 8.648C273.478 8.648 273.044 8.85 272.74 9.254C272.436 9.658 272.284 10.234 272.284 10.982C272.284 11.378 272.318 11.718 272.386 12.002C272.454 12.282 272.554 12.514 272.686 12.698C272.818 12.878 272.98 13.01 273.172 13.094C273.364 13.178 273.582 13.22 273.826 13.22C274.178 13.22 274.484 13.14 274.744 12.98C275.008 12.82 275.25 12.594 275.47 12.302V9.368ZM276.538 5.162V14H275.902C275.75 14 275.654 13.926 275.614 13.778L275.518 13.04C275.258 13.352 274.962 13.604 274.63 13.796C274.298 13.988 273.914 14.084 273.478 14.084C273.13 14.084 272.814 14.018 272.53 13.886C272.246 13.75 272.004 13.552 271.804 13.292C271.604 13.032 271.45 12.708 271.342 12.32C271.234 11.932 271.18 11.486 271.18 10.982C271.18 10.534 271.24 10.118 271.36 9.734C271.48 9.346 271.652 9.01 271.876 8.726C272.1 8.442 272.374 8.22 272.698 8.06C273.026 7.896 273.394 7.814 273.802 7.814C274.174 7.814 274.492 7.878 274.756 8.006C275.024 8.13 275.262 8.304 275.47 8.528V5.162H276.538ZM279.353 7.922V14H278.285V7.922H279.353ZM279.581 6.014C279.581 6.118 279.559 6.216 279.515 6.308C279.475 6.396 279.419 6.476 279.347 6.548C279.279 6.616 279.197 6.67 279.101 6.71C279.009 6.75 278.911 6.77 278.807 6.77C278.703 6.77 278.605 6.75 278.513 6.71C278.425 6.67 278.347 6.616 278.279 6.548C278.211 6.476 278.157 6.396 278.117 6.308C278.077 6.216 278.057 6.118 278.057 6.014C278.057 5.91 278.077 5.812 278.117 5.72C278.157 5.624 278.211 5.542 278.279 5.474C278.347 5.402 278.425 5.346 278.513 5.306C278.605 5.266 278.703 5.246 278.807 5.246C278.911 5.246 279.009 5.266 279.101 5.306C279.197 5.346 279.279 5.402 279.347 5.474C279.419 5.542 279.475 5.624 279.515 5.72C279.559 5.812 279.581 5.91 279.581 6.014ZM283.67 7.826C284.114 7.826 284.514 7.9 284.87 8.048C285.226 8.196 285.53 8.406 285.782 8.678C286.034 8.95 286.226 9.28 286.358 9.668C286.494 10.052 286.562 10.482 286.562 10.958C286.562 11.438 286.494 11.87 286.358 12.254C286.226 12.638 286.034 12.966 285.782 13.238C285.53 13.51 285.226 13.72 284.87 13.868C284.514 14.012 284.114 14.084 283.67 14.084C283.222 14.084 282.818 14.012 282.458 13.868C282.102 13.72 281.798 13.51 281.546 13.238C281.294 12.966 281.1 12.638 280.964 12.254C280.832 11.87 280.766 11.438 280.766 10.958C280.766 10.482 280.832 10.052 280.964 9.668C281.1 9.28 281.294 8.95 281.546 8.678C281.798 8.406 282.102 8.196 282.458 8.048C282.818 7.9 283.222 7.826 283.67 7.826ZM283.67 13.25C284.27 13.25 284.718 13.05 285.014 12.65C285.31 12.246 285.458 11.684 285.458 10.964C285.458 10.24 285.31 9.676 285.014 9.272C284.718 8.868 284.27 8.666 283.67 8.666C283.366 8.666 283.1 8.718 282.872 8.822C282.648 8.926 282.46 9.076 282.308 9.272C282.16 9.468 282.048 9.71 281.972 9.998C281.9 10.282 281.864 10.604 281.864 10.964C281.864 11.684 282.012 12.246 282.308 12.65C282.608 13.05 283.062 13.25 283.67 13.25Z" fill="white"/>
</g>
</g>
<defs>
<clipPath id="clip0_3319_2152">
<rect width="288" height="18" fill="white"/>
</clipPath>
<clipPath id="clip1_3319_2152">
<rect width="175" height="18" fill="white" transform="translate(113)"/>
</clipPath>
</defs>
</svg>
