<svg width="84" height="20" viewBox="0 0 84 20" fill="none" xmlns="http://www.w3.org/2000/svg">
<g opacity="0.6">
<path d="M14.6359 0.837799L12.3215 0.833984C9.72134 0.833984 8.04102 2.60489 8.04102 5.34584V7.42611H5.71401C5.51293 7.42611 5.3501 7.59357 5.3501 7.80013V10.8142C5.3501 11.0208 5.51312 11.188 5.71401 11.188H8.04102V18.7935C8.04102 19 8.20386 19.1673 8.40494 19.1673H11.441C11.6421 19.1673 11.8049 18.9999 11.8049 18.7935V11.188H14.5258C14.7268 11.188 14.8897 11.0208 14.8897 10.8142L14.8908 7.80013C14.8908 7.70095 14.8524 7.60597 14.7842 7.53578C14.7161 7.46559 14.6232 7.42611 14.5267 7.42611H11.8049V5.66264C11.8049 4.81505 12.0016 4.38476 13.0764 4.38476L14.6355 4.38419C14.8364 4.38419 14.9992 4.21673 14.9992 4.01037V1.21163C14.9992 1.00545 14.8366 0.83818 14.6359 0.837799Z" fill="white"/>
</g>
<g opacity="0.6">
<path d="M50.3169 6.56606C50.2778 5.6805 50.1346 5.07168 49.9295 4.54413C49.7178 3.98415 49.3923 3.4828 48.9657 3.06603C48.5489 2.64277 48.0443 2.31388 47.4908 2.10555C46.9602 1.90041 46.3545 1.7572 45.469 1.71816C44.5768 1.67581 44.2936 1.66602 42.0308 1.66602C39.7679 1.66602 39.4847 1.67581 38.5958 1.71485C37.7103 1.7539 37.1015 1.89723 36.574 2.10225C36.0139 2.31388 35.5126 2.63946 35.0958 3.06603C34.6726 3.4828 34.3438 3.98746 34.1353 4.54095C33.9302 5.07168 33.787 5.67719 33.7479 6.56275C33.7056 7.45493 33.6958 7.73816 33.6958 10.001C33.6958 12.2638 33.7056 12.547 33.7446 13.4359C33.7837 14.3215 33.927 14.9303 34.1322 15.4578C34.3438 16.0178 34.6726 16.5191 35.0958 16.9359C35.5126 17.3592 36.0172 17.6881 36.5707 17.8964C37.1015 18.1015 37.707 18.2447 38.5927 18.2838C39.4814 18.323 39.7648 18.3326 42.0276 18.3326C44.2904 18.3326 44.5736 18.323 45.4625 18.2838C46.348 18.2447 46.9569 18.1015 47.4843 17.8964C48.6044 17.4633 49.4899 16.5778 49.923 15.4578C50.128 14.9271 50.2713 14.3215 50.3104 13.4359C50.3494 12.547 50.3592 12.2638 50.3592 10.001C50.3592 7.73816 50.3559 7.45493 50.3169 6.56606ZM48.816 13.3708C48.7801 14.1847 48.6434 14.6243 48.5295 14.9173C48.2494 15.6434 47.6731 16.2196 46.9471 16.4997C46.654 16.6136 46.2113 16.7504 45.4005 16.7861C44.5215 16.8253 44.2578 16.8349 42.0341 16.8349C39.8103 16.8349 39.5433 16.8253 38.6674 16.7861C37.8535 16.7504 37.4139 16.6136 37.1209 16.4997C36.7596 16.3661 36.4307 16.1545 36.1638 15.8778C35.887 15.6075 35.6754 15.2819 35.5418 14.9206C35.4279 14.6276 35.2912 14.1847 35.2554 13.3741C35.2163 12.495 35.2066 12.2312 35.2066 10.0075C35.2066 7.7837 35.2163 7.51674 35.2554 6.64097C35.2912 5.82701 35.4279 5.38747 35.5418 5.09444C35.6754 4.733 35.887 4.40423 36.1671 4.13715C36.4372 3.8604 36.7628 3.64877 37.1242 3.51536C37.4173 3.40141 37.8601 3.26469 38.6707 3.22882C39.5498 3.18978 39.8136 3.17998 42.0372 3.17998C44.2643 3.17998 44.528 3.18978 45.4039 3.22882C46.2178 3.26469 46.6573 3.40141 46.9504 3.51536C47.3117 3.64877 47.6406 3.8604 47.9075 4.13715C48.1843 4.40741 48.3959 4.733 48.5295 5.09444C48.6434 5.38747 48.7801 5.83019 48.816 6.64097C48.855 7.52005 48.8648 7.7837 48.8648 10.0075C48.8648 12.2312 48.855 12.4917 48.816 13.3708Z" fill="white"/>
<path d="M42.0307 5.71954C39.6671 5.71954 37.7493 7.63719 37.7493 10.001C37.7493 12.3648 39.6671 14.2824 42.0307 14.2824C44.3945 14.2824 46.3122 12.3648 46.3122 10.001C46.3122 7.63719 44.3945 5.71954 42.0307 5.71954ZM42.0307 12.7782C40.4973 12.7782 39.2535 11.5345 39.2535 10.001C39.2535 8.46743 40.4973 7.22372 42.0307 7.22372C43.5643 7.22372 44.808 8.46743 44.808 10.001C44.808 11.5345 43.5643 12.7782 42.0307 12.7782Z" fill="white"/>
<path d="M47.4811 5.55027C47.4811 6.10223 47.0336 6.54979 46.4815 6.54979C45.9295 6.54979 45.482 6.10223 45.482 5.55027C45.482 4.99817 45.9295 4.55074 46.4815 4.55074C47.0336 4.55074 47.4811 4.99817 47.4811 5.55027Z" fill="white"/>
</g>
<path d="M82.329 18.3327L82.3332 18.332V12.2195C82.3332 9.22921 81.6894 6.92574 78.1936 6.92574C76.513 6.92574 75.3853 7.84796 74.9248 8.72227H74.8762V7.2049H71.5616V18.332H75.013V12.8223C75.013 11.3716 75.288 9.9688 77.0846 9.9688C78.8547 9.9688 78.8811 11.6244 78.8811 12.9153V18.3327H82.329Z" fill="white"/>
<path d="M65.9415 7.2056H69.3971V18.3327H65.9415V7.2056Z" fill="white"/>
<path d="M67.6679 1.66602C66.563 1.66602 65.6665 2.56254 65.6665 3.6674C65.6665 4.77227 66.563 5.68754 67.6679 5.68754C68.7728 5.68754 69.6693 4.77227 69.6693 3.6674C69.6686 2.56254 68.7721 1.66602 67.6679 1.66602Z" fill="white"/>
</svg>
