<svg width="20" height="20" viewBox="0 0 20 20" fill="none" xmlns="http://www.w3.org/2000/svg">
<g opacity="0.6">
<path d="M18.3171 6.56606C18.2781 5.6805 18.1349 5.07168 17.9297 4.54413C17.7181 3.98415 17.3925 3.4828 16.9659 3.06603C16.5492 2.64277 16.0445 2.31388 15.491 2.10555C14.9604 1.90041 14.3548 1.7572 13.4692 1.71816C12.577 1.67581 12.2938 1.66602 10.031 1.66602C7.76818 1.66602 7.48495 1.67581 6.59608 1.71485C5.71052 1.7539 5.1017 1.89723 4.57428 2.10225C4.01418 2.31388 3.51283 2.63946 3.09606 3.06603C2.6728 3.4828 2.34403 3.98746 2.13558 4.54095C1.93044 5.07168 1.78723 5.67719 1.74819 6.56275C1.70584 7.45493 1.69604 7.73816 1.69604 10.001C1.69604 12.2638 1.70584 12.547 1.74488 13.4359C1.78393 14.3215 1.92726 14.9303 2.1324 15.4578C2.34403 16.0178 2.6728 16.5191 3.09606 16.9359C3.51283 17.3592 4.01748 17.6881 4.57098 17.8964C5.1017 18.1015 5.70721 18.2447 6.5929 18.2838C7.48165 18.323 7.76501 18.3326 10.0278 18.3326C12.2906 18.3326 12.5739 18.323 13.4627 18.2838C14.3483 18.2447 14.9571 18.1015 15.4845 17.8964C16.6046 17.4633 17.4902 16.5778 17.9232 15.4578C18.1282 14.9271 18.2716 14.3215 18.3106 13.4359C18.3497 12.547 18.3595 12.2638 18.3595 10.001C18.3595 7.73816 18.3561 7.45493 18.3171 6.56606ZM16.8162 13.3708C16.7804 14.1847 16.6437 14.6243 16.5297 14.9173C16.2496 15.6434 15.6734 16.2196 14.9473 16.4997C14.6543 16.6136 14.2116 16.7504 13.4008 16.7861C12.5217 16.8253 12.2581 16.8349 10.0343 16.8349C7.81054 16.8349 7.54358 16.8253 6.66769 16.7861C5.85373 16.7504 5.41419 16.6136 5.12116 16.4997C4.75984 16.3661 4.43095 16.1545 4.164 15.8778C3.88725 15.6075 3.67562 15.2819 3.54208 14.9206C3.42813 14.6276 3.29141 14.1847 3.25567 13.3741C3.2165 12.495 3.20683 12.2312 3.20683 10.0075C3.20683 7.7837 3.2165 7.51674 3.25567 6.64097C3.29141 5.82701 3.42813 5.38747 3.54208 5.09444C3.67562 4.733 3.88725 4.40423 4.1673 4.13715C4.43744 3.8604 4.76302 3.64877 5.12447 3.51536C5.41749 3.40141 5.86034 3.26469 6.67099 3.22882C7.55007 3.18978 7.81384 3.17998 10.0375 3.17998C12.2646 3.17998 12.5282 3.18978 13.4041 3.22882C14.2181 3.26469 14.6576 3.40141 14.9506 3.51536C15.3119 3.64877 15.6408 3.8604 15.9078 4.13715C16.1845 4.40741 16.3962 4.733 16.5297 5.09444C16.6437 5.38747 16.7804 5.83019 16.8162 6.64097C16.8553 7.52005 16.8651 7.7837 16.8651 10.0075C16.8651 12.2312 16.8553 12.4917 16.8162 13.3708Z" fill="white"/>
<path d="M10.031 5.71954C7.66732 5.71954 5.74956 7.63719 5.74956 10.001C5.74956 12.3648 7.66732 14.2824 10.031 14.2824C12.3948 14.2824 14.3124 12.3648 14.3124 10.001C14.3124 7.63719 12.3948 5.71954 10.031 5.71954ZM10.031 12.7782C8.49756 12.7782 7.25373 11.5345 7.25373 10.001C7.25373 8.46743 8.49756 7.22372 10.031 7.22372C11.5645 7.22372 12.8083 8.46743 12.8083 10.001C12.8083 11.5345 11.5645 12.7782 10.031 12.7782Z" fill="white"/>
<path d="M15.4814 5.55027C15.4814 6.10223 15.0338 6.54979 14.4817 6.54979C13.9298 6.54979 13.4822 6.10223 13.4822 5.55027C13.4822 4.99817 13.9298 4.55074 14.4817 4.55074C15.0338 4.55074 15.4814 4.99817 15.4814 5.55027Z" fill="white"/>
</g>
</svg>
