<svg width="20" height="20" viewBox="0 0 20 20" fill="none" xmlns="http://www.w3.org/2000/svg">
<path d="M18.3293 18.3327L18.3334 18.332V12.2195C18.3334 9.22921 17.6897 6.92574 14.1938 6.92574C12.5133 6.92574 11.3855 7.84796 10.9251 8.72227H10.8765V7.2049H7.56188V18.332H11.0133V12.8223C11.0133 11.3716 11.2883 9.9688 13.0848 9.9688C14.8549 9.9688 14.8813 11.6244 14.8813 12.9153V18.3327H18.3293Z" fill="white"/>
<path d="M1.94174 7.2056H5.3973V18.3327H1.94174V7.2056Z" fill="white"/>
<path d="M3.66814 1.66602C2.56328 1.66602 1.66675 2.56254 1.66675 3.6674C1.66675 4.77227 2.56328 5.68754 3.66814 5.68754C4.773 5.68754 5.66953 4.77227 5.66953 3.6674C5.66883 2.56254 4.7723 1.66602 3.66814 1.66602Z" fill="white"/>
</svg>
