<svg width="75" height="12" viewBox="0 0 75 12" fill="none" xmlns="http://www.w3.org/2000/svg">
<path opacity="0.6" d="M9.471 5.925V10.02C8.95767 10.398 8.40933 10.6757 7.826 10.853C7.24733 11.0257 6.62667 11.112 5.964 11.112C5.138 11.112 4.389 10.9837 3.717 10.727C3.04967 10.4703 2.478 10.1133 2.002 9.656C1.53067 9.19867 1.16667 8.65267 0.91 8.018C0.653333 7.38333 0.525 6.69033 0.525 5.939C0.525 5.17833 0.648667 4.48067 0.896 3.846C1.14333 3.21133 1.49333 2.66533 1.946 2.208C2.40333 1.75067 2.95633 1.396 3.605 1.144C4.25367 0.892 4.98167 0.766 5.789 0.766C6.19967 0.766 6.58233 0.798666 6.937 0.863999C7.29633 0.929333 7.62767 1.02033 7.931 1.137C8.239 1.249 8.519 1.38667 8.771 1.55C9.023 1.71333 9.254 1.893 9.464 2.089L8.925 2.943C8.841 3.07833 8.73133 3.16233 8.596 3.195C8.46067 3.223 8.31367 3.188 8.155 3.09C8.001 3.00133 7.847 2.91267 7.693 2.824C7.539 2.73533 7.36633 2.65833 7.175 2.593C6.98833 2.52767 6.776 2.474 6.538 2.432C6.30467 2.39 6.034 2.369 5.726 2.369C5.22667 2.369 4.774 2.453 4.368 2.621C3.96667 2.789 3.62367 3.02933 3.339 3.342C3.05433 3.65467 2.835 4.03033 2.681 4.469C2.527 4.90767 2.45 5.39767 2.45 5.939C2.45 6.51767 2.53167 7.03567 2.695 7.493C2.863 7.94567 3.09633 8.33067 3.395 8.648C3.69833 8.96067 4.06233 9.201 4.487 9.369C4.91167 9.53233 5.38533 9.614 5.908 9.614C6.28133 9.614 6.615 9.57433 6.909 9.495C7.203 9.41567 7.49 9.30833 7.77 9.173V7.339H6.496C6.37467 7.339 6.279 7.30633 6.209 7.241C6.14367 7.171 6.111 7.087 6.111 6.989V5.925H9.471ZM20.9382 5.939C20.9382 6.681 20.8145 7.36933 20.5672 8.004C20.3245 8.634 19.9792 9.18 19.5312 9.642C19.0832 10.104 18.5442 10.4657 17.9142 10.727C17.2842 10.9837 16.5842 11.112 15.8142 11.112C15.0489 11.112 14.3512 10.9837 13.7212 10.727C13.0912 10.4657 12.5499 10.104 12.0972 9.642C11.6492 9.18 11.3015 8.634 11.0542 8.004C10.8069 7.36933 10.6832 6.681 10.6832 5.939C10.6832 5.197 10.8069 4.511 11.0542 3.881C11.3015 3.24633 11.6492 2.698 12.0972 2.236C12.5499 1.774 13.0912 1.41467 13.7212 1.158C14.3512 0.896667 15.0489 0.766 15.8142 0.766C16.3275 0.766 16.8105 0.826666 17.2632 0.947999C17.7159 1.06467 18.1312 1.23267 18.5092 1.452C18.8872 1.66667 19.2255 1.93033 19.5242 2.243C19.8275 2.551 20.0842 2.89633 20.2942 3.279C20.5042 3.66167 20.6629 4.077 20.7702 4.525C20.8822 4.973 20.9382 5.44433 20.9382 5.939ZM19.0132 5.939C19.0132 5.38367 18.9385 4.88667 18.7892 4.448C18.6399 4.00467 18.4275 3.629 18.1522 3.321C17.8769 3.013 17.5409 2.77733 17.1442 2.614C16.7522 2.45067 16.3089 2.369 15.8142 2.369C15.3195 2.369 14.8739 2.45067 14.4772 2.614C14.0852 2.77733 13.7492 3.013 13.4692 3.321C13.1939 3.629 12.9815 4.00467 12.8322 4.448C12.6829 4.88667 12.6082 5.38367 12.6082 5.939C12.6082 6.49433 12.6829 6.99367 12.8322 7.437C12.9815 7.87567 13.1939 8.249 13.4692 8.557C13.7492 8.86033 14.0852 9.09367 14.4772 9.257C14.8739 9.42033 15.3195 9.502 15.8142 9.502C16.3089 9.502 16.7522 9.42033 17.1442 9.257C17.5409 9.09367 17.8769 8.86033 18.1522 8.557C18.4275 8.249 18.6399 7.87567 18.7892 7.437C18.9385 6.99367 19.0132 6.49433 19.0132 5.939ZM32.6423 2.425H29.5903V11H27.7073V2.425H24.6553V0.877999H32.6423V2.425ZM43.278 5.939C43.278 6.681 43.1544 7.36933 42.907 8.004C42.6644 8.634 42.319 9.18 41.871 9.642C41.423 10.104 40.884 10.4657 40.254 10.727C39.624 10.9837 38.924 11.112 38.154 11.112C37.3887 11.112 36.691 10.9837 36.061 10.727C35.431 10.4657 34.8897 10.104 34.437 9.642C33.989 9.18 33.6414 8.634 33.394 8.004C33.1467 7.36933 33.023 6.681 33.023 5.939C33.023 5.197 33.1467 4.511 33.394 3.881C33.6414 3.24633 33.989 2.698 34.437 2.236C34.8897 1.774 35.431 1.41467 36.061 1.158C36.691 0.896667 37.3887 0.766 38.154 0.766C38.6674 0.766 39.1504 0.826666 39.603 0.947999C40.0557 1.06467 40.471 1.23267 40.849 1.452C41.227 1.66667 41.5654 1.93033 41.864 2.243C42.1674 2.551 42.424 2.89633 42.634 3.279C42.844 3.66167 43.0027 4.077 43.11 4.525C43.222 4.973 43.278 5.44433 43.278 5.939ZM41.353 5.939C41.353 5.38367 41.2784 4.88667 41.129 4.448C40.9797 4.00467 40.7674 3.629 40.492 3.321C40.2167 3.013 39.8807 2.77733 39.484 2.614C39.092 2.45067 38.6487 2.369 38.154 2.369C37.6594 2.369 37.2137 2.45067 36.817 2.614C36.425 2.77733 36.089 3.013 35.809 3.321C35.5337 3.629 35.3214 4.00467 35.172 4.448C35.0227 4.88667 34.948 5.38367 34.948 5.939C34.948 6.49433 35.0227 6.99367 35.172 7.437C35.3214 7.87567 35.5337 8.249 35.809 8.557C36.089 8.86033 36.425 9.09367 36.817 9.257C37.2137 9.42033 37.6594 9.502 38.154 9.502C38.6487 9.502 39.092 9.42033 39.484 9.257C39.8807 9.09367 40.2167 8.86033 40.492 8.557C40.7674 8.249 40.9797 7.87567 41.129 7.437C41.2784 6.99367 41.353 6.49433 41.353 5.939ZM54.9822 2.425H51.9302V11H50.0472V2.425H46.9952V0.877999H54.9822V2.425ZM65.6179 5.939C65.6179 6.681 65.4942 7.36933 65.2469 8.004C65.0042 8.634 64.6589 9.18 64.2109 9.642C63.7629 10.104 63.2239 10.4657 62.5939 10.727C61.9639 10.9837 61.2639 11.112 60.4939 11.112C59.7286 11.112 59.0309 10.9837 58.4009 10.727C57.7709 10.4657 57.2296 10.104 56.7769 9.642C56.3289 9.18 55.9812 8.634 55.7339 8.004C55.4866 7.36933 55.3629 6.681 55.3629 5.939C55.3629 5.197 55.4866 4.511 55.7339 3.881C55.9812 3.24633 56.3289 2.698 56.7769 2.236C57.2296 1.774 57.7709 1.41467 58.4009 1.158C59.0309 0.896667 59.7286 0.766 60.4939 0.766C61.0072 0.766 61.4902 0.826666 61.9429 0.947999C62.3956 1.06467 62.8109 1.23267 63.1889 1.452C63.5669 1.66667 63.9052 1.93033 64.2039 2.243C64.5072 2.551 64.7639 2.89633 64.9739 3.279C65.1839 3.66167 65.3426 4.077 65.4499 4.525C65.5619 4.973 65.6179 5.44433 65.6179 5.939ZM63.6929 5.939C63.6929 5.38367 63.6182 4.88667 63.4689 4.448C63.3196 4.00467 63.1072 3.629 62.8319 3.321C62.5566 3.013 62.2206 2.77733 61.8239 2.614C61.4319 2.45067 60.9886 2.369 60.4939 2.369C59.9992 2.369 59.5536 2.45067 59.1569 2.614C58.7649 2.77733 58.4289 3.013 58.1489 3.321C57.8736 3.629 57.6612 4.00467 57.5119 4.448C57.3626 4.88667 57.2879 5.38367 57.2879 5.939C57.2879 6.49433 57.3626 6.99367 57.5119 7.437C57.6612 7.87567 57.8736 8.249 58.1489 8.557C58.4289 8.86033 58.7649 9.09367 59.1569 9.257C59.5536 9.42033 59.9992 9.502 60.4939 9.502C60.9886 9.502 61.4319 9.42033 61.8239 9.257C62.2206 9.09367 62.5566 8.86033 62.8319 8.557C63.1072 8.249 63.3196 7.87567 63.4689 7.437C63.6182 6.99367 63.6929 6.49433 63.6929 5.939ZM70.5615 5.967C70.9069 5.967 71.2079 5.925 71.4645 5.841C71.7212 5.75233 71.9335 5.62867 72.1015 5.47C72.2742 5.30667 72.4025 5.11067 72.4865 4.882C72.5705 4.64867 72.6125 4.38967 72.6125 4.105C72.6125 3.83433 72.5705 3.58933 72.4865 3.37C72.4025 3.15067 72.2765 2.964 72.1085 2.81C71.9405 2.656 71.7282 2.53933 71.4715 2.46C71.2149 2.376 70.9115 2.334 70.5615 2.334H69.1545V5.967H70.5615ZM70.5615 0.877999C71.2382 0.877999 71.8239 0.957333 72.3185 1.116C72.8132 1.27467 73.2215 1.49633 73.5435 1.781C73.8655 2.06567 74.1035 2.40633 74.2575 2.803C74.4162 3.19967 74.4955 3.63367 74.4955 4.105C74.4955 4.595 74.4139 5.04533 74.2505 5.456C74.0872 5.862 73.8422 6.212 73.5155 6.506C73.1889 6.8 72.7782 7.02867 72.2835 7.192C71.7935 7.35533 71.2195 7.437 70.5615 7.437H69.1545V11H67.2715V0.877999H70.5615Z" fill="white"/>
</svg>
